<svg width="116" height="120" viewBox="0 0 116 120" fill="none" xmlns="http://www.w3.org/2000/svg">
<path d="M0.254883 0H115.745V120H0.254883V0Z" fill="#F7DF1E"/>
<path d="M30.6201 100.28L39.4582 94.7229C41.1632 97.8641 42.7143 100.522 46.4347 100.522C50.001 100.522 52.2494 99.0723 52.2494 93.4342V55.0913H63.1025V93.5936C63.1025 105.274 56.5134 110.59 46.9 110.59C38.2179 110.59 33.1781 105.918 30.6199 100.28" fill="#1F2626"/>
<path d="M69 99.0724L77.837 93.756C80.1633 97.7035 83.1868 100.603 88.5357 100.603C93.0326 100.603 95.9003 98.2669 95.9003 95.0448C95.9003 91.1783 92.9545 89.8088 87.9929 87.5541L85.2803 86.345C77.4499 82.8819 72.2555 78.5322 72.2555 69.3492C72.2555 60.8913 78.4574 54.4469 88.1483 54.4469C95.048 54.4469 100.01 56.9442 103.575 63.469L95.125 69.1073C93.2644 65.6438 91.2493 64.2747 88.1485 64.2747C84.9699 64.2747 82.9542 66.369 82.9542 69.1073C82.9542 72.4905 84.9699 73.8602 89.6209 75.9547L92.334 77.1629C101.56 81.2713 106.754 85.4595 106.754 94.8836C106.754 105.034 99.079 110.591 88.7685 110.591C78.6904 110.591 72.1782 105.597 69.0002 99.0724" fill="#1F2626"/>
</svg>
