<svg width="120" height="120" viewBox="0 0 120 120" fill="none" xmlns="http://www.w3.org/2000/svg">
<path d="M0 59.7974C0 69.273 8.84919 78.1189 22.8007 83.1049C20.0147 97.7701 22.3014 109.59 29.9391 114.196C37.79 118.93 49.4858 115.653 60.5867 105.507C71.4076 115.243 82.3439 119.075 89.9746 114.456C97.8178 109.709 100.203 97.087 97.3404 81.964C111.872 76.9405 120 69.3977 120 59.7974C120 50.5414 111.134 42.5338 97.3711 37.5796C100.453 21.8316 97.8416 10.2984 89.8877 5.50237C82.2193 0.878721 71.156 4.9087 60.176 14.9001C48.7532 4.29502 37.799 1.05714 29.8528 5.86712C22.1918 10.5039 20.0057 22.5388 22.8007 37.4756C9.32028 42.39 0 50.5784 0 59.7974Z" fill="white"/>
<path d="M94.4565 42.4992C93.351 42.1013 92.2054 41.7248 91.0259 41.3688C91.2198 40.5415 91.3977 39.7249 91.5559 38.9222C94.1528 25.7415 92.4549 15.1231 86.6569 11.627C81.0973 8.27476 72.005 11.77 62.8223 20.1259C61.9393 20.9294 61.0538 21.7801 60.1687 22.6717C59.5789 22.0818 58.9901 21.5118 58.4028 20.9665C48.779 12.0318 39.1327 8.26663 33.3404 11.7728C27.7861 15.1348 26.1413 25.1171 28.4789 37.6085C28.7046 38.8151 28.9685 40.0472 29.2669 41.3C27.9016 41.7052 26.5836 42.1372 25.3226 42.5967C14.0397 46.7099 6.83398 53.1561 6.83398 59.8425C6.83398 66.7483 14.5693 73.675 26.3213 77.875C27.2487 78.2064 28.211 78.5198 29.2028 78.8173C28.8808 80.1722 28.6009 81.4999 28.3658 82.7949C26.1369 95.0696 27.8776 104.816 33.417 108.157C39.1388 111.607 48.7415 108.061 58.0921 99.5143C58.8311 98.8387 59.5729 98.1223 60.3159 97.3714C61.279 98.3411 62.2405 99.2588 63.197 100.12C72.2541 108.269 81.1995 111.56 86.7339 108.21C92.4499 104.75 94.3076 94.2798 91.8958 81.5412C91.7116 80.5683 91.4973 79.5744 91.2566 78.5628C91.9309 78.3544 92.593 78.1392 93.2385 77.9154C105.456 73.6829 113.405 66.8406 113.405 59.8425C113.405 53.1319 105.967 46.6422 94.4565 42.4992Z" fill="#53C1DE"/>
<path d="M91.8055 73.3972C91.2227 73.599 90.6248 73.7939 90.0155 73.9829C88.6668 69.5184 86.8465 64.771 84.6189 59.8661C86.7446 55.078 88.4946 50.3913 89.8055 45.9557C90.8957 46.2855 91.9538 46.6334 92.9734 47.0006C102.835 50.5504 108.851 55.7988 108.851 59.8429C108.851 64.1505 102.354 69.7425 91.8055 73.3972ZM87.4285 82.466C88.4949 88.0988 88.6473 93.1916 87.9408 97.1728C87.3061 100.75 86.0297 103.135 84.4514 104.09C81.0929 106.123 73.9106 103.481 66.1648 96.5115C65.2769 95.7125 64.3825 94.8595 63.4852 93.9566C66.4881 90.5226 69.4893 86.5305 72.4183 82.0969C77.5702 81.6189 82.4376 80.8374 86.8516 79.7705C87.069 80.6874 87.2621 81.5867 87.4285 82.466ZM43.1651 103.739C39.8838 104.951 37.2704 104.986 35.6906 104.033C32.329 102.006 30.9316 94.1803 32.8378 83.6831C33.0561 82.4809 33.316 81.246 33.6155 79.9837C37.9812 80.9931 42.8129 81.7194 47.9771 82.1572C50.9259 86.4956 54.0138 90.4834 57.1255 93.975C56.4457 94.6613 55.7685 95.3147 55.095 95.9303C50.9603 99.7094 46.8168 102.391 43.1651 103.739ZM27.7925 73.3709C22.596 71.5137 18.3046 69.1001 15.363 66.4662C12.7198 64.0994 11.3853 61.7496 11.3853 59.8429C11.3853 55.7853 17.1707 50.6099 26.8199 47.0922C27.9907 46.6654 29.2163 46.2631 30.4882 45.8853C31.8218 50.421 33.5712 55.1633 35.6823 59.9587C33.5438 64.8253 31.7696 69.6431 30.423 74.2321C29.5163 73.9595 28.6378 73.6727 27.7925 73.3709ZM32.9456 36.6947C30.9428 25.9923 32.2729 17.9189 35.6201 15.893C39.1854 13.7348 47.0693 16.8119 55.3786 24.5266C55.9098 25.0197 56.443 25.5358 56.9778 26.0697C53.8814 29.5461 50.8218 33.5039 47.8992 37.8167C42.8871 38.3025 38.0893 39.0828 33.6782 40.1277C33.4008 38.9612 33.1552 37.8152 32.9456 36.6947ZM78.9154 48.5635C77.8608 46.659 76.7783 44.7995 75.6746 42.9908C79.0749 43.4402 82.3327 44.0369 85.3921 44.767C84.4736 47.8449 83.3288 51.0631 81.9812 54.3622C81.0145 52.4432 79.9921 50.5083 78.9154 48.5635ZM60.169 29.4717C62.2689 31.8505 64.3719 34.5063 66.4403 37.3879C64.3559 37.285 62.2458 37.2314 60.1181 37.2314C58.0106 37.2314 55.916 37.2838 53.8446 37.3849C55.9151 34.5301 58.0363 31.8779 60.169 29.4717ZM41.3025 48.5965C40.2492 50.5063 39.2457 52.4307 38.2942 54.3586C36.9684 51.071 35.8342 47.8382 34.9077 44.7166C37.9484 44.0051 41.1908 43.4234 44.5695 42.9825C43.4503 44.8078 42.3588 46.681 41.3025 48.5961V48.5965ZM44.6668 77.0428C41.176 76.6356 37.8848 76.0838 34.845 75.392C35.7862 72.2147 36.9454 68.9128 38.2993 65.5544C39.2533 67.481 40.2607 69.4061 41.3206 71.3202H41.3208C42.4003 73.2701 43.5187 75.1802 44.6668 77.0428ZM60.2949 90.5496C58.1372 88.1153 55.9849 85.4226 53.8829 82.5261C55.9234 82.6098 58.0038 82.6527 60.1181 82.6527C62.2903 82.6527 64.4377 82.6015 66.5513 82.5031C64.476 85.4517 62.3806 88.1486 60.2949 90.5496ZM82.0246 65.3833C83.4491 68.778 84.6498 72.0626 85.6032 75.1857C82.5133 75.9228 79.1771 76.5164 75.6621 76.9575C76.7684 75.1244 77.8605 73.233 78.9336 71.2874C80.0192 69.319 81.05 67.3477 82.0246 65.3833ZM74.99 68.9093C73.3241 71.9295 71.6138 74.8126 69.8776 77.5341C66.7152 77.7706 63.448 77.8923 60.1181 77.8923C56.8017 77.8923 53.5758 77.7846 50.4693 77.5738C48.6631 74.8166 46.9156 71.9249 45.2603 68.9352H45.2607C43.6098 65.9537 42.0903 62.947 40.7135 59.9571C42.09 56.9603 43.6054 53.9502 45.2469 50.974L45.2465 50.9746C46.8923 47.9905 48.6244 45.1129 50.4139 42.3729C53.5834 42.1224 56.8334 41.9917 60.118 41.9917H60.1181C63.4175 41.9917 66.6717 42.1234 69.8402 42.3761C71.6024 45.096 73.3228 47.9643 74.975 50.9488C76.646 53.9669 78.1811 56.9569 79.5692 59.8895C78.1852 62.8724 76.6536 65.8926 74.99 68.9093ZM84.3816 15.7513C87.9503 17.9032 89.3381 26.5816 87.0959 37.9617C86.9529 38.6879 86.7919 39.4275 86.617 40.1771C82.1956 39.1104 77.3944 38.3166 72.3677 37.8235C69.4394 33.4632 66.4048 29.4993 63.3589 26.0675C64.1778 25.2438 64.9956 24.4583 65.8099 23.7171C73.6777 16.5578 81.0312 13.7312 84.3816 15.7513Z" fill="white"/>
<path d="M60.1185 49.8923C65.3741 49.8923 69.6349 54.3472 69.6349 59.8428C69.6349 65.3381 65.3741 69.7932 60.1185 69.7932C54.8628 69.7932 50.6021 65.3381 50.6021 59.8428C50.6021 54.3472 54.8628 49.8923 60.1185 49.8923Z" fill="#53C1DE"/>
</svg>
